<svg
  xmlns="http://www.w3.org/2000/svg"
  width="64"
  height="64"
  viewBox="0 0 64 64"
  fill="none"
>
  <rect width="64" height="64" rx="18" fill="#020817" />
  <rect
    x="1"
    y="1"
    width="62"
    height="62"
    rx="17"
    stroke="url(#border)"
    stroke-opacity="0.28"
  />
  <circle cx="32" cy="32" r="19" fill="url(#glow)" />
  <circle cx="32" cy="32" r="17" fill="url(#badge)" />
  <path
    d="M23.5 22.4H40.7V28.1H35.1V43H28.9V28.1H23.5V22.4Z"
    fill="#020617"
  />
  <path
    d="M36 22.4H41.1C47 22.4 50.4 25.4 50.4 30.5C50.4 34 48.8 36.5 45.8 37.7L50.6 43H43.5L39.9 38.5H42C43.7 38.5 45.1 37.8 45.1 35.7C45.1 33.6 43.8 32.9 41.8 32.9H41.6V43H36V22.4Z"
    fill="#020617"
  />
  <defs>
    <radialGradient id="glow" cx="0" cy="0" r="1" gradientUnits="userSpaceOnUse" gradientTransform="translate(32 32) rotate(90) scale(23)">
      <stop stop-color="#FACC15" stop-opacity="0.42" />
      <stop offset="1" stop-color="#FACC15" stop-opacity="0" />
    </radialGradient>
    <linearGradient id="badge" x1="19" y1="16" x2="49" y2="48" gradientUnits="userSpaceOnUse">
      <stop stop-color="#FDE68A" />
      <stop offset="0.5" stop-color="#FACC15" />
      <stop offset="1" stop-color="#EAB308" />
    </linearGradient>
    <linearGradient id="border" x1="8" y1="4" x2="57" y2="60" gradientUnits="userSpaceOnUse">
      <stop stop-color="#F59E0B" />
      <stop offset="1" stop-color="#1E3A8A" />
    </linearGradient>
  </defs>
</svg>
